<mxfile host="app.diagrams.net" modified="2024-03-27T05:28:19.557Z" agent="Mozilla/5.0 (Windows NT 10.0; Win64; x64) AppleWebKit/537.36 (KHTML, like Gecko) Chrome/123.0.0.0 Safari/537.36" etag="PG1GirH2i77YPd6SEdyY" version="24.2.0" type="github">
  <diagram name="페이지-1" id="NP-TIX0myfl4sf9b4IvR">
    <mxGraphModel dx="2634" dy="772" grid="1" gridSize="10" guides="1" tooltips="1" connect="1" arrows="1" fold="1" page="1" pageScale="1" pageWidth="1200" pageHeight="1920" math="0" shadow="0">
      <root>
        <mxCell id="0" />
        <mxCell id="1" parent="0" />
        <mxCell id="qKHeYkPvnPnLQPGrNLh1-1" value="시작" style="ellipse;whiteSpace=wrap;html=1;" vertex="1" parent="1">
          <mxGeometry x="354" y="30" width="120" height="80" as="geometry" />
        </mxCell>
        <mxCell id="qKHeYkPvnPnLQPGrNLh1-2" value="메인 화면" style="rounded=0;whiteSpace=wrap;html=1;" vertex="1" parent="1">
          <mxGeometry x="354" y="120" width="120" height="60" as="geometry" />
        </mxCell>
        <mxCell id="qKHeYkPvnPnLQPGrNLh1-3" value="단어 추가를&lt;div&gt;눌렀는가?&lt;/div&gt;" style="rhombus;whiteSpace=wrap;html=1;" vertex="1" parent="1">
          <mxGeometry x="352" y="200" width="124" height="70" as="geometry" />
        </mxCell>
        <mxCell id="qKHeYkPvnPnLQPGrNLh1-22" value="" style="edgeStyle=orthogonalEdgeStyle;rounded=0;orthogonalLoop=1;jettySize=auto;html=1;" edge="1" parent="1" source="qKHeYkPvnPnLQPGrNLh1-4" target="qKHeYkPvnPnLQPGrNLh1-20">
          <mxGeometry relative="1" as="geometry" />
        </mxCell>
        <mxCell id="qKHeYkPvnPnLQPGrNLh1-4" value="단어 암기를&lt;div&gt;눌렀는가?&lt;/div&gt;" style="rhombus;whiteSpace=wrap;html=1;" vertex="1" parent="1">
          <mxGeometry x="350" y="290" width="124" height="70" as="geometry" />
        </mxCell>
        <mxCell id="qKHeYkPvnPnLQPGrNLh1-93" style="edgeStyle=orthogonalEdgeStyle;rounded=0;orthogonalLoop=1;jettySize=auto;html=1;exitX=0;exitY=0.5;exitDx=0;exitDy=0;entryX=1;entryY=0.5;entryDx=0;entryDy=0;" edge="1" parent="1" source="qKHeYkPvnPnLQPGrNLh1-5" target="qKHeYkPvnPnLQPGrNLh1-72">
          <mxGeometry relative="1" as="geometry" />
        </mxCell>
        <mxCell id="qKHeYkPvnPnLQPGrNLh1-99" style="edgeStyle=orthogonalEdgeStyle;rounded=0;orthogonalLoop=1;jettySize=auto;html=1;exitX=0.5;exitY=1;exitDx=0;exitDy=0;entryX=1;entryY=0.25;entryDx=0;entryDy=0;" edge="1" parent="1" source="qKHeYkPvnPnLQPGrNLh1-5" target="qKHeYkPvnPnLQPGrNLh1-2">
          <mxGeometry relative="1" as="geometry">
            <Array as="points">
              <mxPoint x="412" y="670" />
              <mxPoint x="1080" y="670" />
              <mxPoint x="1080" y="135" />
            </Array>
          </mxGeometry>
        </mxCell>
        <mxCell id="qKHeYkPvnPnLQPGrNLh1-5" value="뜻 암기를&lt;div&gt;눌렀는가?&lt;/div&gt;" style="rhombus;whiteSpace=wrap;html=1;" vertex="1" parent="1">
          <mxGeometry x="350" y="380" width="124" height="70" as="geometry" />
        </mxCell>
        <mxCell id="qKHeYkPvnPnLQPGrNLh1-6" value="" style="endArrow=classic;html=1;rounded=0;exitX=0.5;exitY=1;exitDx=0;exitDy=0;entryX=0.5;entryY=0;entryDx=0;entryDy=0;" edge="1" parent="1" source="qKHeYkPvnPnLQPGrNLh1-1" target="qKHeYkPvnPnLQPGrNLh1-2">
          <mxGeometry width="50" height="50" relative="1" as="geometry">
            <mxPoint x="390" y="420" as="sourcePoint" />
            <mxPoint x="440" y="370" as="targetPoint" />
            <Array as="points" />
          </mxGeometry>
        </mxCell>
        <mxCell id="qKHeYkPvnPnLQPGrNLh1-7" value="" style="endArrow=classic;html=1;rounded=0;exitX=0.5;exitY=1;exitDx=0;exitDy=0;entryX=0.5;entryY=0;entryDx=0;entryDy=0;" edge="1" parent="1" source="qKHeYkPvnPnLQPGrNLh1-2" target="qKHeYkPvnPnLQPGrNLh1-3">
          <mxGeometry width="50" height="50" relative="1" as="geometry">
            <mxPoint x="424" y="90" as="sourcePoint" />
            <mxPoint x="424" y="130" as="targetPoint" />
            <Array as="points" />
          </mxGeometry>
        </mxCell>
        <mxCell id="qKHeYkPvnPnLQPGrNLh1-8" value="" style="endArrow=classic;html=1;rounded=0;exitX=0.5;exitY=1;exitDx=0;exitDy=0;" edge="1" parent="1" source="qKHeYkPvnPnLQPGrNLh1-3" target="qKHeYkPvnPnLQPGrNLh1-4">
          <mxGeometry width="50" height="50" relative="1" as="geometry">
            <mxPoint x="434" y="100" as="sourcePoint" />
            <mxPoint x="434" y="140" as="targetPoint" />
            <Array as="points" />
          </mxGeometry>
        </mxCell>
        <mxCell id="qKHeYkPvnPnLQPGrNLh1-9" value="" style="endArrow=classic;html=1;rounded=0;exitX=0.5;exitY=1;exitDx=0;exitDy=0;entryX=0.5;entryY=0;entryDx=0;entryDy=0;" edge="1" parent="1" source="qKHeYkPvnPnLQPGrNLh1-4" target="qKHeYkPvnPnLQPGrNLh1-5">
          <mxGeometry width="50" height="50" relative="1" as="geometry">
            <mxPoint x="444" y="110" as="sourcePoint" />
            <mxPoint x="444" y="150" as="targetPoint" />
            <Array as="points" />
          </mxGeometry>
        </mxCell>
        <mxCell id="qKHeYkPvnPnLQPGrNLh1-10" value="단어 뜻 입력받아&lt;div&gt;파일에 저장&lt;/div&gt;" style="rounded=0;whiteSpace=wrap;html=1;" vertex="1" parent="1">
          <mxGeometry x="150" y="205" width="120" height="60" as="geometry" />
        </mxCell>
        <mxCell id="qKHeYkPvnPnLQPGrNLh1-11" value="" style="endArrow=classic;html=1;rounded=0;exitX=0;exitY=0.5;exitDx=0;exitDy=0;entryX=1;entryY=0.5;entryDx=0;entryDy=0;" edge="1" parent="1" source="qKHeYkPvnPnLQPGrNLh1-3" target="qKHeYkPvnPnLQPGrNLh1-10">
          <mxGeometry width="50" height="50" relative="1" as="geometry">
            <mxPoint x="454" y="120" as="sourcePoint" />
            <mxPoint x="454" y="160" as="targetPoint" />
            <Array as="points" />
          </mxGeometry>
        </mxCell>
        <mxCell id="qKHeYkPvnPnLQPGrNLh1-12" value="" style="endArrow=classic;html=1;rounded=0;exitX=0.5;exitY=0;exitDx=0;exitDy=0;entryX=0;entryY=0.75;entryDx=0;entryDy=0;" edge="1" parent="1" source="qKHeYkPvnPnLQPGrNLh1-10" target="qKHeYkPvnPnLQPGrNLh1-2">
          <mxGeometry width="50" height="50" relative="1" as="geometry">
            <mxPoint x="464" y="130" as="sourcePoint" />
            <mxPoint x="464" y="170" as="targetPoint" />
            <Array as="points">
              <mxPoint x="210" y="170" />
            </Array>
          </mxGeometry>
        </mxCell>
        <mxCell id="qKHeYkPvnPnLQPGrNLh1-13" value="예" style="text;html=1;align=center;verticalAlign=middle;whiteSpace=wrap;rounded=0;" vertex="1" parent="1">
          <mxGeometry x="280" y="235" width="60" height="30" as="geometry" />
        </mxCell>
        <mxCell id="qKHeYkPvnPnLQPGrNLh1-15" value="예" style="text;html=1;align=center;verticalAlign=middle;whiteSpace=wrap;rounded=0;" vertex="1" parent="1">
          <mxGeometry x="460" y="300" width="60" height="30" as="geometry" />
        </mxCell>
        <mxCell id="qKHeYkPvnPnLQPGrNLh1-16" value="예" style="text;html=1;align=center;verticalAlign=middle;whiteSpace=wrap;rounded=0;" vertex="1" parent="1">
          <mxGeometry x="30" y="455" width="60" height="30" as="geometry" />
        </mxCell>
        <mxCell id="qKHeYkPvnPnLQPGrNLh1-17" value="아니요" style="text;html=1;align=center;verticalAlign=middle;whiteSpace=wrap;rounded=0;" vertex="1" parent="1">
          <mxGeometry x="414" y="265" width="60" height="30" as="geometry" />
        </mxCell>
        <mxCell id="qKHeYkPvnPnLQPGrNLh1-18" value="아니요" style="text;html=1;align=center;verticalAlign=middle;whiteSpace=wrap;rounded=0;" vertex="1" parent="1">
          <mxGeometry x="414" y="350" width="60" height="30" as="geometry" />
        </mxCell>
        <mxCell id="qKHeYkPvnPnLQPGrNLh1-19" value="아니요" style="text;html=1;align=center;verticalAlign=middle;whiteSpace=wrap;rounded=0;" vertex="1" parent="1">
          <mxGeometry x="410" y="460" width="60" height="30" as="geometry" />
        </mxCell>
        <mxCell id="qKHeYkPvnPnLQPGrNLh1-23" value="" style="edgeStyle=orthogonalEdgeStyle;rounded=0;orthogonalLoop=1;jettySize=auto;html=1;" edge="1" parent="1" source="qKHeYkPvnPnLQPGrNLh1-20" target="qKHeYkPvnPnLQPGrNLh1-21">
          <mxGeometry relative="1" as="geometry" />
        </mxCell>
        <mxCell id="qKHeYkPvnPnLQPGrNLh1-20" value="뜻 제시" style="rounded=0;whiteSpace=wrap;html=1;" vertex="1" parent="1">
          <mxGeometry x="520" y="295" width="120" height="60" as="geometry" />
        </mxCell>
        <mxCell id="qKHeYkPvnPnLQPGrNLh1-25" value="" style="edgeStyle=orthogonalEdgeStyle;rounded=0;orthogonalLoop=1;jettySize=auto;html=1;" edge="1" parent="1" source="qKHeYkPvnPnLQPGrNLh1-21" target="qKHeYkPvnPnLQPGrNLh1-24">
          <mxGeometry relative="1" as="geometry" />
        </mxCell>
        <mxCell id="qKHeYkPvnPnLQPGrNLh1-32" style="edgeStyle=orthogonalEdgeStyle;rounded=0;orthogonalLoop=1;jettySize=auto;html=1;exitX=0.5;exitY=1;exitDx=0;exitDy=0;entryX=0.5;entryY=0;entryDx=0;entryDy=0;" edge="1" parent="1" source="qKHeYkPvnPnLQPGrNLh1-21" target="qKHeYkPvnPnLQPGrNLh1-38">
          <mxGeometry relative="1" as="geometry" />
        </mxCell>
        <mxCell id="qKHeYkPvnPnLQPGrNLh1-21" value="단어를 맞췄는가?" style="rhombus;whiteSpace=wrap;html=1;" vertex="1" parent="1">
          <mxGeometry x="660" y="285" width="150" height="80" as="geometry" />
        </mxCell>
        <mxCell id="qKHeYkPvnPnLQPGrNLh1-35" style="edgeStyle=orthogonalEdgeStyle;rounded=0;orthogonalLoop=1;jettySize=auto;html=1;exitX=0;exitY=0.5;exitDx=0;exitDy=0;entryX=1;entryY=0.5;entryDx=0;entryDy=0;" edge="1" parent="1" source="qKHeYkPvnPnLQPGrNLh1-24" target="qKHeYkPvnPnLQPGrNLh1-38">
          <mxGeometry relative="1" as="geometry">
            <mxPoint x="580" y="360" as="targetPoint" />
          </mxGeometry>
        </mxCell>
        <mxCell id="qKHeYkPvnPnLQPGrNLh1-24" value="모르는 단어에 추가" style="rounded=0;whiteSpace=wrap;html=1;" vertex="1" parent="1">
          <mxGeometry x="850" y="400" width="120" height="60" as="geometry" />
        </mxCell>
        <mxCell id="qKHeYkPvnPnLQPGrNLh1-26" value="아니요" style="text;html=1;align=center;verticalAlign=middle;whiteSpace=wrap;rounded=0;" vertex="1" parent="1">
          <mxGeometry x="840" y="290" width="60" height="30" as="geometry" />
        </mxCell>
        <mxCell id="qKHeYkPvnPnLQPGrNLh1-27" value="예" style="text;html=1;align=center;verticalAlign=middle;whiteSpace=wrap;rounded=0;" vertex="1" parent="1">
          <mxGeometry x="720" y="360" width="60" height="30" as="geometry" />
        </mxCell>
        <mxCell id="qKHeYkPvnPnLQPGrNLh1-33" value="다음 단어로 넘어가며" style="text;html=1;align=center;verticalAlign=middle;whiteSpace=wrap;rounded=0;" vertex="1" parent="1">
          <mxGeometry x="540" y="430" width="120" height="30" as="geometry" />
        </mxCell>
        <mxCell id="qKHeYkPvnPnLQPGrNLh1-42" style="edgeStyle=orthogonalEdgeStyle;rounded=0;orthogonalLoop=1;jettySize=auto;html=1;exitX=0.5;exitY=1;exitDx=0;exitDy=0;entryX=0.5;entryY=0;entryDx=0;entryDy=0;" edge="1" parent="1" source="qKHeYkPvnPnLQPGrNLh1-38" target="qKHeYkPvnPnLQPGrNLh1-40">
          <mxGeometry relative="1" as="geometry" />
        </mxCell>
        <mxCell id="qKHeYkPvnPnLQPGrNLh1-44" style="edgeStyle=orthogonalEdgeStyle;rounded=0;orthogonalLoop=1;jettySize=auto;html=1;exitX=0;exitY=0.5;exitDx=0;exitDy=0;entryX=0.5;entryY=1;entryDx=0;entryDy=0;" edge="1" parent="1" source="qKHeYkPvnPnLQPGrNLh1-38" target="qKHeYkPvnPnLQPGrNLh1-20">
          <mxGeometry relative="1" as="geometry" />
        </mxCell>
        <mxCell id="qKHeYkPvnPnLQPGrNLh1-38" value="모든 단어를&lt;div&gt;다 제시했는가?&lt;/div&gt;" style="rhombus;whiteSpace=wrap;html=1;" vertex="1" parent="1">
          <mxGeometry x="660" y="390" width="150" height="80" as="geometry" />
        </mxCell>
        <mxCell id="qKHeYkPvnPnLQPGrNLh1-43" style="edgeStyle=orthogonalEdgeStyle;rounded=0;orthogonalLoop=1;jettySize=auto;html=1;exitX=0.5;exitY=1;exitDx=0;exitDy=0;entryX=0.5;entryY=0;entryDx=0;entryDy=0;" edge="1" parent="1" source="qKHeYkPvnPnLQPGrNLh1-40" target="qKHeYkPvnPnLQPGrNLh1-41">
          <mxGeometry relative="1" as="geometry" />
        </mxCell>
        <mxCell id="qKHeYkPvnPnLQPGrNLh1-40" value="결과 보여주기" style="rounded=0;whiteSpace=wrap;html=1;" vertex="1" parent="1">
          <mxGeometry x="675" y="480" width="120" height="60" as="geometry" />
        </mxCell>
        <mxCell id="qKHeYkPvnPnLQPGrNLh1-47" style="edgeStyle=orthogonalEdgeStyle;rounded=0;orthogonalLoop=1;jettySize=auto;html=1;exitX=0.5;exitY=1;exitDx=0;exitDy=0;entryX=1;entryY=0.5;entryDx=0;entryDy=0;" edge="1" parent="1" source="qKHeYkPvnPnLQPGrNLh1-41" target="qKHeYkPvnPnLQPGrNLh1-2">
          <mxGeometry relative="1" as="geometry">
            <Array as="points">
              <mxPoint x="735" y="640" />
              <mxPoint x="1020" y="640" />
              <mxPoint x="1020" y="150" />
            </Array>
          </mxGeometry>
        </mxCell>
        <mxCell id="qKHeYkPvnPnLQPGrNLh1-41" value="모르는 단어 다시 학습하기" style="rounded=0;whiteSpace=wrap;html=1;" vertex="1" parent="1">
          <mxGeometry x="675" y="560" width="120" height="60" as="geometry" />
        </mxCell>
        <mxCell id="qKHeYkPvnPnLQPGrNLh1-45" value="예" style="text;html=1;align=center;verticalAlign=middle;whiteSpace=wrap;rounded=0;" vertex="1" parent="1">
          <mxGeometry x="735" y="450" width="60" height="30" as="geometry" />
        </mxCell>
        <mxCell id="qKHeYkPvnPnLQPGrNLh1-46" value="아니요" style="text;html=1;align=center;verticalAlign=middle;whiteSpace=wrap;rounded=0;" vertex="1" parent="1">
          <mxGeometry x="590" y="400" width="60" height="30" as="geometry" />
        </mxCell>
        <mxCell id="qKHeYkPvnPnLQPGrNLh1-71" value="" style="edgeStyle=orthogonalEdgeStyle;rounded=0;orthogonalLoop=1;jettySize=auto;html=1;" edge="1" parent="1" source="qKHeYkPvnPnLQPGrNLh1-72" target="qKHeYkPvnPnLQPGrNLh1-75">
          <mxGeometry relative="1" as="geometry" />
        </mxCell>
        <mxCell id="qKHeYkPvnPnLQPGrNLh1-72" value="단어 제시" style="rounded=0;whiteSpace=wrap;html=1;" vertex="1" parent="1">
          <mxGeometry x="180" y="385" width="120" height="60" as="geometry" />
        </mxCell>
        <mxCell id="qKHeYkPvnPnLQPGrNLh1-73" value="" style="edgeStyle=orthogonalEdgeStyle;rounded=0;orthogonalLoop=1;jettySize=auto;html=1;" edge="1" parent="1" source="qKHeYkPvnPnLQPGrNLh1-75" target="qKHeYkPvnPnLQPGrNLh1-77">
          <mxGeometry relative="1" as="geometry" />
        </mxCell>
        <mxCell id="qKHeYkPvnPnLQPGrNLh1-74" style="edgeStyle=orthogonalEdgeStyle;rounded=0;orthogonalLoop=1;jettySize=auto;html=1;exitX=0.5;exitY=1;exitDx=0;exitDy=0;entryX=0.5;entryY=0;entryDx=0;entryDy=0;" edge="1" parent="1" source="qKHeYkPvnPnLQPGrNLh1-75" target="qKHeYkPvnPnLQPGrNLh1-83">
          <mxGeometry relative="1" as="geometry" />
        </mxCell>
        <mxCell id="qKHeYkPvnPnLQPGrNLh1-75" value="뜻을 맞췄는가?" style="rhombus;whiteSpace=wrap;html=1;" vertex="1" parent="1">
          <mxGeometry x="-30" y="375" width="150" height="80" as="geometry" />
        </mxCell>
        <mxCell id="qKHeYkPvnPnLQPGrNLh1-96" style="edgeStyle=orthogonalEdgeStyle;rounded=0;orthogonalLoop=1;jettySize=auto;html=1;exitX=0.5;exitY=1;exitDx=0;exitDy=0;entryX=0;entryY=0.5;entryDx=0;entryDy=0;" edge="1" parent="1" source="qKHeYkPvnPnLQPGrNLh1-77" target="qKHeYkPvnPnLQPGrNLh1-83">
          <mxGeometry relative="1" as="geometry" />
        </mxCell>
        <mxCell id="qKHeYkPvnPnLQPGrNLh1-77" value="모르는 단어에 추가" style="rounded=0;whiteSpace=wrap;html=1;" vertex="1" parent="1">
          <mxGeometry x="-200" y="385" width="120" height="60" as="geometry" />
        </mxCell>
        <mxCell id="qKHeYkPvnPnLQPGrNLh1-78" value="아니요" style="text;html=1;align=center;verticalAlign=middle;whiteSpace=wrap;rounded=0;" vertex="1" parent="1">
          <mxGeometry x="-75" y="385" width="60" height="30" as="geometry" />
        </mxCell>
        <mxCell id="qKHeYkPvnPnLQPGrNLh1-79" value="예" style="text;html=1;align=center;verticalAlign=middle;whiteSpace=wrap;rounded=0;" vertex="1" parent="1">
          <mxGeometry x="30" y="565" width="60" height="30" as="geometry" />
        </mxCell>
        <mxCell id="qKHeYkPvnPnLQPGrNLh1-80" value="다음 단어로 넘어가며" style="text;html=1;align=center;verticalAlign=middle;whiteSpace=wrap;rounded=0;" vertex="1" parent="1">
          <mxGeometry x="130" y="530" width="120" height="30" as="geometry" />
        </mxCell>
        <mxCell id="qKHeYkPvnPnLQPGrNLh1-81" style="edgeStyle=orthogonalEdgeStyle;rounded=0;orthogonalLoop=1;jettySize=auto;html=1;exitX=0.5;exitY=1;exitDx=0;exitDy=0;entryX=0.5;entryY=0;entryDx=0;entryDy=0;" edge="1" parent="1" source="qKHeYkPvnPnLQPGrNLh1-83" target="qKHeYkPvnPnLQPGrNLh1-85">
          <mxGeometry relative="1" as="geometry" />
        </mxCell>
        <mxCell id="qKHeYkPvnPnLQPGrNLh1-91" style="edgeStyle=orthogonalEdgeStyle;rounded=0;orthogonalLoop=1;jettySize=auto;html=1;exitX=1;exitY=0.5;exitDx=0;exitDy=0;entryX=0.5;entryY=1;entryDx=0;entryDy=0;" edge="1" parent="1" source="qKHeYkPvnPnLQPGrNLh1-83" target="qKHeYkPvnPnLQPGrNLh1-72">
          <mxGeometry relative="1" as="geometry" />
        </mxCell>
        <mxCell id="qKHeYkPvnPnLQPGrNLh1-83" value="모든 뜻을&lt;div&gt;다 제시했는가?&lt;/div&gt;" style="rhombus;whiteSpace=wrap;html=1;" vertex="1" parent="1">
          <mxGeometry x="-30" y="485" width="150" height="80" as="geometry" />
        </mxCell>
        <mxCell id="qKHeYkPvnPnLQPGrNLh1-84" style="edgeStyle=orthogonalEdgeStyle;rounded=0;orthogonalLoop=1;jettySize=auto;html=1;exitX=0.5;exitY=1;exitDx=0;exitDy=0;entryX=0.5;entryY=0;entryDx=0;entryDy=0;" edge="1" parent="1" source="qKHeYkPvnPnLQPGrNLh1-85" target="qKHeYkPvnPnLQPGrNLh1-87">
          <mxGeometry relative="1" as="geometry" />
        </mxCell>
        <mxCell id="qKHeYkPvnPnLQPGrNLh1-85" value="결과 보여주기" style="rounded=0;whiteSpace=wrap;html=1;" vertex="1" parent="1">
          <mxGeometry x="-15" y="600" width="120" height="60" as="geometry" />
        </mxCell>
        <mxCell id="qKHeYkPvnPnLQPGrNLh1-97" style="edgeStyle=orthogonalEdgeStyle;rounded=0;orthogonalLoop=1;jettySize=auto;html=1;exitX=0.5;exitY=1;exitDx=0;exitDy=0;entryX=0;entryY=0.5;entryDx=0;entryDy=0;" edge="1" parent="1" source="qKHeYkPvnPnLQPGrNLh1-87" target="qKHeYkPvnPnLQPGrNLh1-2">
          <mxGeometry relative="1" as="geometry">
            <Array as="points">
              <mxPoint x="45" y="785" />
              <mxPoint x="-270" y="785" />
              <mxPoint x="-270" y="150" />
            </Array>
          </mxGeometry>
        </mxCell>
        <mxCell id="qKHeYkPvnPnLQPGrNLh1-87" value="모르는 단어 다시 학습하기" style="rounded=0;whiteSpace=wrap;html=1;" vertex="1" parent="1">
          <mxGeometry x="-15" y="680" width="120" height="60" as="geometry" />
        </mxCell>
        <mxCell id="qKHeYkPvnPnLQPGrNLh1-89" value="아니요" style="text;html=1;align=center;verticalAlign=middle;whiteSpace=wrap;rounded=0;" vertex="1" parent="1">
          <mxGeometry x="140" y="500" width="60" height="30" as="geometry" />
        </mxCell>
      </root>
    </mxGraphModel>
  </diagram>
</mxfile>
